<svg width="414" height="353" viewBox="0 0 414 353" fill="none" xmlns="http://www.w3.org/2000/svg">
<path d="M0 -15H414V353H0V-15Z" fill="#F8D762"/>
<path d="M495 192C495 277.052 426.052 346 341 346C255.948 346 187 277.052 187 192C187 106.948 255.948 38 341 38C426.052 38 495 106.948 495 192Z" fill="#249782"/>
<path fill-rule="evenodd" clip-rule="evenodd" d="M341 326C415.006 326 475 266.006 475 192C475 117.994 415.006 58 341 58C266.994 58 207 117.994 207 192C207 266.006 266.994 326 341 326ZM341 346C426.052 346 495 277.052 495 192C495 106.948 426.052 38 341 38C255.948 38 187 106.948 187 192C187 277.052 255.948 346 341 346Z" fill="#484848"/>
<path d="M227 66C227 143.32 164.32 206 87 206C9.68013 206 -53 143.32 -53 66C-53 -11.3199 9.68013 -74 87 -74C164.32 -74 227 -11.3199 227 66Z" fill="#F9C9C7"/>
<path fill-rule="evenodd" clip-rule="evenodd" d="M87 188C154.379 188 209 133.379 209 66C209 -1.37874 154.379 -56 87 -56C19.6213 -56 -35 -1.37874 -35 66C-35 133.379 19.6213 188 87 188ZM87 206C164.32 206 227 143.32 227 66C227 -11.3199 164.32 -74 87 -74C9.68013 -74 -53 -11.3199 -53 66C-53 143.32 9.68013 206 87 206Z" fill="#484848"/>
</svg>
