<svg width="259" height="37" viewBox="0 0 259 37" fill="none" xmlns="http://www.w3.org/2000/svg">
<path d="M30.12 1.92C31.336 1.92 32.328 2.32 33.096 3.12C33.864 3.92 34.248 4.96 34.248 6.24V32.352C34.248 33.568 33.896 34.528 33.192 35.232C32.488 35.936 31.56 36.288 30.408 36.288C29.288 36.288 28.36 35.936 27.624 35.232C26.92 34.528 26.568 33.568 26.568 32.352V18.24L21.096 28.32C20.552 29.344 19.976 30.08 19.368 30.528C18.76 30.944 18.04 31.152 17.208 31.152C16.376 31.152 15.656 30.944 15.048 30.528C14.44 30.08 13.864 29.344 13.32 28.32L7.896 18.528V32.352C7.896 33.536 7.528 34.496 6.792 35.232C6.088 35.936 5.16 36.288 4.008 36.288C2.888 36.288 1.96 35.936 1.224 35.232C0.52 34.528 0.168 33.568 0.168 32.352V6.24C0.168 4.96 0.552 3.92 1.32 3.12C2.12 2.32 3.128 1.92 4.344 1.92C5.208 1.92 5.992 2.176 6.696 2.688C7.4 3.168 7.992 3.872 8.472 4.8L17.304 21.408L26.088 4.8C27.08 2.88 28.424 1.92 30.12 1.92ZM54.2543 36.288C53.0383 36.288 52.0143 35.968 51.1823 35.328C50.3823 34.656 49.9823 33.664 49.9823 32.352V15.84C49.9823 14.528 50.3823 13.552 51.1823 12.912C52.0143 12.24 53.0383 11.904 54.2543 11.904C55.4703 11.904 56.4783 12.24 57.2783 12.912C58.1103 13.552 58.5263 14.528 58.5263 15.84V32.352C58.5263 33.664 58.1103 34.656 57.2783 35.328C56.4783 35.968 55.4703 36.288 54.2543 36.288ZM54.2543 8.544C52.8143 8.544 51.6623 8.176 50.7983 7.44C49.9663 6.672 49.5503 5.664 49.5503 4.416C49.5503 3.168 49.9663 2.176 50.7983 1.44C51.6623 0.703999 52.8143 0.335999 54.2543 0.335999C55.6623 0.335999 56.7983 0.703999 57.6623 1.44C58.5263 2.176 58.9583 3.168 58.9583 4.416C58.9583 5.664 58.5263 6.672 57.6623 7.44C56.8303 8.176 55.6943 8.544 54.2543 8.544ZM87.5303 30.192C89.6743 30.32 90.7463 31.28 90.7463 33.072C90.7463 34.192 90.3143 35.024 89.4503 35.568C88.5863 36.112 87.3543 36.336 85.7543 36.24L84.4103 36.144C81.5303 35.92 79.3383 35.056 77.8343 33.552C76.3623 32.016 75.6263 29.888 75.6263 27.168V18.672H74.2343C71.6743 18.672 70.3943 17.616 70.3943 15.504C70.3943 13.424 71.6743 12.384 74.2343 12.384H75.6263V9.264C75.6263 8.048 76.0103 7.088 76.7783 6.384C77.5463 5.648 78.5863 5.28 79.8983 5.28C81.2103 5.28 82.2503 5.648 83.0183 6.384C83.7863 7.088 84.1703 8.048 84.1703 9.264V12.384H86.8103C89.3703 12.384 90.6503 13.424 90.6503 15.504C90.6503 17.616 89.3703 18.672 86.8103 18.672H84.1703V27.888C84.1703 28.496 84.3463 29.008 84.6983 29.424C85.0823 29.84 85.5623 30.064 86.1383 30.096L87.5303 30.192ZM116.126 30.192C118.27 30.32 119.342 31.28 119.342 33.072C119.342 34.192 118.91 35.024 118.046 35.568C117.182 36.112 115.95 36.336 114.35 36.24L113.006 36.144C110.126 35.92 107.934 35.056 106.43 33.552C104.958 32.016 104.222 29.888 104.222 27.168V18.672H102.83C100.27 18.672 98.9899 17.616 98.9899 15.504C98.9899 13.424 100.27 12.384 102.83 12.384H104.222V9.264C104.222 8.048 104.606 7.088 105.374 6.384C106.142 5.648 107.182 5.28 108.494 5.28C109.806 5.28 110.846 5.648 111.614 6.384C112.382 7.088 112.766 8.048 112.766 9.264V12.384H115.406C117.966 12.384 119.246 13.424 119.246 15.504C119.246 17.616 117.966 18.672 115.406 18.672H112.766V27.888C112.766 28.496 112.942 29.008 113.294 29.424C113.678 29.84 114.158 30.064 114.734 30.096L116.126 30.192ZM150.891 28.416C151.627 28.416 152.219 28.704 152.667 29.28C153.147 29.856 153.387 30.608 153.387 31.536C153.387 32.816 152.763 33.792 151.515 34.464C150.427 35.008 149.131 35.472 147.627 35.856C146.155 36.208 144.795 36.384 143.547 36.384C140.923 36.384 138.635 35.888 136.683 34.896C134.731 33.904 133.227 32.48 132.171 30.624C131.115 28.768 130.587 26.592 130.587 24.096C130.587 21.728 131.083 19.616 132.075 17.76C133.099 15.872 134.507 14.416 136.299 13.392C138.123 12.336 140.171 11.808 142.443 11.808C144.651 11.808 146.587 12.288 148.251 13.248C149.915 14.208 151.195 15.568 152.091 17.328C153.019 19.088 153.483 21.152 153.483 23.52C153.483 24.256 153.307 24.832 152.955 25.248C152.635 25.632 152.155 25.824 151.515 25.824H138.843C139.067 27.36 139.563 28.464 140.331 29.136C141.099 29.808 142.235 30.144 143.739 30.144C144.539 30.144 145.275 30.064 145.947 29.904C146.619 29.712 147.371 29.456 148.203 29.136C148.683 28.944 149.147 28.784 149.595 28.656C150.075 28.496 150.507 28.416 150.891 28.416ZM142.683 17.568C141.563 17.568 140.667 17.936 139.995 18.672C139.323 19.376 138.923 20.416 138.795 21.792H146.331C146.139 18.976 144.923 17.568 142.683 17.568ZM182.434 11.904C183.522 11.808 184.386 12.064 185.026 12.672C185.666 13.248 185.986 14.112 185.986 15.264C185.986 16.544 185.682 17.472 185.074 18.048C184.498 18.624 183.442 18.992 181.906 19.152L180.466 19.296C178.866 19.488 177.714 20 177.01 20.832C176.338 21.632 176.002 22.736 176.002 24.144V32.352C176.002 33.664 175.586 34.656 174.754 35.328C173.954 35.968 172.946 36.288 171.73 36.288C170.514 36.288 169.49 35.968 168.658 35.328C167.858 34.656 167.458 33.664 167.458 32.352V15.744C167.458 14.528 167.858 13.584 168.658 12.912C169.49 12.24 170.482 11.904 171.634 11.904C172.818 11.904 173.762 12.224 174.466 12.864C175.202 13.504 175.57 14.4 175.57 15.552V16.464C176.082 15.056 176.914 13.968 178.066 13.2C179.25 12.432 180.482 12.016 181.762 11.952L182.434 11.904ZM216.379 28.416C217.115 28.416 217.707 28.704 218.155 29.28C218.635 29.856 218.875 30.608 218.875 31.536C218.875 32.816 218.251 33.792 217.003 34.464C215.915 35.008 214.619 35.472 213.115 35.856C211.643 36.208 210.283 36.384 209.035 36.384C206.411 36.384 204.123 35.888 202.171 34.896C200.219 33.904 198.715 32.48 197.659 30.624C196.603 28.768 196.075 26.592 196.075 24.096C196.075 21.728 196.571 19.616 197.563 17.76C198.587 15.872 199.995 14.416 201.787 13.392C203.611 12.336 205.659 11.808 207.931 11.808C210.139 11.808 212.075 12.288 213.739 13.248C215.403 14.208 216.683 15.568 217.579 17.328C218.507 19.088 218.971 21.152 218.971 23.52C218.971 24.256 218.795 24.832 218.443 25.248C218.123 25.632 217.643 25.824 217.003 25.824H204.331C204.555 27.36 205.051 28.464 205.819 29.136C206.587 29.808 207.723 30.144 209.227 30.144C210.027 30.144 210.763 30.064 211.435 29.904C212.107 29.712 212.859 29.456 213.691 29.136C214.171 28.944 214.635 28.784 215.083 28.656C215.563 28.496 215.995 28.416 216.379 28.416ZM208.171 17.568C207.051 17.568 206.155 17.936 205.483 18.672C204.811 19.376 204.411 20.416 204.283 21.792H211.819C211.627 18.976 210.411 17.568 208.171 17.568Z" fill="#4D4D4D"/>
<path d="M258 22.768C259.333 23.5378 259.333 25.4623 258 26.2321L240.75 36.1913C239.417 36.9611 237.75 35.9989 237.75 34.4593L237.75 14.5407C237.75 13.0011 239.417 12.0389 240.75 12.8087L258 22.768Z" fill="#249782"/>
</svg>
